<?xml version="1.0" encoding="UTF-8" standalone="no"?>
<svg width="12px" height="10px" viewBox="0 0 12 10" version="1.1" xmlns="http://www.w3.org/2000/svg" xmlns:xlink="http://www.w3.org/1999/xlink">
    <!-- Generator: Sketch 42 (36781) - http://www.bohemiancoding.com/sketch -->
    <title>react_color</title>
    <desc>Created with Sketch.</desc>
    <defs></defs>
    <g id="Page-1" stroke="none" stroke-width="1" fill="none" fill-rule="evenodd">
        <g id="react_color" fill-rule="nonzero" fill="#61DAFB">
            <path d="M5.60774194,7.26098191 C2.53095358,7.26098191 0.0232258065,6.30430803 0.0232258065,5.00258398 C0.0232258065,3.70085993 2.53095358,2.74418605 5.60774194,2.74418605 C8.68453029,2.74418605 11.1922581,3.70085993 11.1922581,5.00258398 C11.1922581,6.30430803 8.68453029,7.26098191 5.60774194,7.26098191 Z M5.60774194,6.84754522 C7.02973629,6.84754522 8.36011551,6.63287949 9.33710432,6.26016771 C10.2676819,5.90516137 10.7793548,5.44366078 10.7793548,5.00258398 C10.7793548,4.56150717 10.2676819,4.10000659 9.33710432,3.74500025 C8.36011551,3.37228847 7.02973629,3.15762274 5.60774194,3.15762274 C4.18574758,3.15762274 2.85536836,3.37228847 1.87837956,3.74500025 C0.947802,4.10000659 0.436129032,4.56150717 0.436129032,5.00258398 C0.436129032,5.44366078 0.947802,5.90516137 1.87837956,6.26016771 C2.85536836,6.63287949 4.18574758,6.84754522 5.60774194,6.84754522 Z" id="Oval"></path>
            <ellipse id="Oval" cx="5.59225806" cy="4.99483204" rx="0.985806452" ry="0.987080103"></ellipse>
            <path d="M2.81322065,0.161829457 C3.9390591,-0.489032566 6.02033356,1.20712855 7.55872774,3.87506977 C9.09712192,6.54301099 9.52357523,9.19584599 8.39773677,9.84670801 C7.27189832,10.49757 5.19062386,8.80140892 3.65222968,6.1334677 C2.1138355,3.46552648 1.68738219,0.812691481 2.81322065,0.161829457 Z M3.01967226,0.519865633 C2.63819261,0.740404036 2.49488528,1.41483561 2.65313526,2.39926013 C2.81927774,3.43278145 3.29880669,4.69371122 4.00980387,5.92674935 C4.72080105,7.15978748 5.57165131,8.20605153 6.38249764,8.86686106 C7.15482521,9.49627925 7.80980552,9.70921024 8.19128516,9.48867183 C8.57276481,9.26813343 8.71607214,8.59370186 8.55782216,7.60927734 C8.39167968,6.57575602 7.91215073,5.31482624 7.20115355,4.08178811 C6.49015637,2.84874998 5.63930611,1.80248594 4.82845978,1.1416764 C4.05613221,0.51225822 3.4011519,0.29932723 3.01967226,0.519865633 Z" id="Oval"></path>
            <path d="M2.81752258,9.84756589 C1.69168413,9.19670387 2.11813743,6.54386887 3.65653161,3.87592765 C5.19492579,1.20798643 7.27620026,-0.488174685 8.40203871,0.162687339 C9.52787716,0.813549362 9.10142386,3.46638436 7.56302968,6.13432558 C6.0246355,8.8022668 3.94336103,10.4984279 2.81752258,9.84756589 Z M4.83276171,8.86771895 C5.64360804,8.20690941 6.49445831,7.16064537 7.20545548,5.92760724 C7.91645266,4.6945691 8.39598161,3.43363933 8.56212409,2.40011801 C8.72037408,1.41569349 8.57706674,0.741261917 8.1955871,0.520723514 C7.81410745,0.300185111 7.15912715,0.513116101 6.38679958,1.14253428 C5.57595325,1.80334382 4.72510299,2.84960786 4.01410581,4.08264599 C3.30310863,5.31568413 2.82357968,6.5766139 2.6574372,7.61013522 C2.49918721,8.59455974 2.64249455,9.26899131 3.02397419,9.48952972 C3.40545384,9.71006812 4.06043414,9.49713713 4.83276171,8.86771895 Z" id="Oval"></path>
        </g>
    </g>
</svg>