<?xml version="1.0" encoding="UTF-8" standalone="no"?>
<svg width="12px" height="10px" viewBox="0 0 12 10" version="1.1" xmlns="http://www.w3.org/2000/svg" xmlns:xlink="http://www.w3.org/1999/xlink">
    <!-- Generator: Sketch 42 (36781) - http://www.bohemiancoding.com/sketch -->
    <title>redux_color</title>
    <desc>Created with Sketch.</desc>
    <defs></defs>
    <g id="Page-1" stroke="none" stroke-width="1" fill="none" fill-rule="evenodd">
        <g id="redux_color" fill-rule="nonzero" fill="#764ABC">
            <g id="Group">
                <path d="M7.96727971,6.95899501 C8.35377194,6.91901306 8.64697294,6.5858301 8.63364562,6.18601056 C8.6203183,5.78619101 8.28713535,5.46633538 7.8873158,5.46633538 L7.86066117,5.46633538 C7.4475143,5.47966269 7.12765867,5.82617297 7.14098598,6.23931983 C7.1543133,6.4392296 7.23427721,6.61248474 7.35422308,6.7324306 C6.90109426,7.62536092 6.20807371,8.27839951 5.16854289,8.82481956 C4.46219503,9.19798447 3.72919253,9.33125765 2.99619003,9.23796642 C2.39646071,9.15800251 1.93000458,8.89145615 1.63680358,8.45165465 C1.21032939,7.79861606 1.17034744,7.09226819 1.53018503,6.38592033 C1.78340408,5.87948224 2.18322362,5.50631733 2.43644267,5.31973488 C2.38313339,5.14647974 2.30316949,4.85327874 2.26318753,4.64004165 C0.330726395,6.03941006 0.530636168,7.93188924 1.11703817,8.82481956 C1.55683967,9.49118547 2.44976999,9.90433233 3.43599153,9.90433233 C3.70253789,9.90433233 3.96908426,9.87767769 4.23563062,9.8110411 C5.94152735,9.47785815 7.23427721,8.46498197 7.96727971,6.95899501 L7.96727971,6.95899501 Z" id="Shape"></path>
                <path d="M10.3128877,5.30640756 C9.30001153,4.12027624 7.80735189,3.46723765 6.10145517,3.46723765 L5.88821808,3.46723765 C5.76827221,3.22734592 5.51505317,3.0674181 5.23517949,3.0674181 L5.20852485,3.0674181 C4.79537799,3.08074542 4.47552235,3.42725569 4.48884967,3.84040256 C4.50217699,4.2402221 4.83535994,4.56007774 5.23517949,4.56007774 L5.26183412,4.56007774 C5.55503512,4.54675042 5.80825417,4.36016797 5.91487271,4.10694892 L6.15476444,4.10694892 C7.16764062,4.10694892 8.12720753,4.40014992 8.99348321,4.9732246 C9.65984912,5.4130261 10.1396326,5.98610078 10.4061789,6.67912133 C10.6327433,7.23886869 10.619416,7.78528874 10.3795243,8.25174487 C10.0063594,8.95809274 9.37997544,9.34458497 8.55368171,9.34458497 C8.02058898,9.34458497 7.51415089,9.18465715 7.24760453,9.06471128 C7.10100403,9.19798447 6.83445767,9.41122156 6.64787521,9.54449474 C7.22094989,9.8110411 7.80735189,9.9576416 8.36709926,9.9576416 C9.6465218,9.9576416 10.5927614,9.25129374 10.952599,8.54494587 C11.3390912,7.77196142 11.3124366,6.4392296 10.3128877,5.30640756 Z" id="Shape"></path>
                <path d="M3.54261008,7.18555942 C3.55593739,7.58537897 3.88912035,7.9052346 4.28893989,7.9052346 L4.31559453,7.9052346 C4.72874139,7.89190728 5.04859703,7.54539701 5.03526971,7.13225015 C5.02194239,6.7324306 4.68875944,6.41257497 4.28893989,6.41257497 L4.26228526,6.41257497 C4.23563062,6.41257497 4.19564867,6.41257497 4.16899403,6.42590228 C3.62257399,5.51964465 3.39600958,4.5334231 3.47597349,3.46723765 C3.52928276,2.66759856 3.79582912,1.97457801 4.26228526,1.40150333 C4.64877749,0.908392558 5.3951073,0.66850083 5.90154539,0.655173512 C7.31424112,0.628518876 7.91397044,2.38772488 7.95395239,3.09407274 C8.12720753,3.13405469 8.42040853,3.22734592 8.6203183,3.29398251 C8.46039048,1.13495697 7.12765867,0.0154622396 5.84823612,0.0154622396 C4.64877749,0.0154622396 3.54261008,0.881737921 3.10280858,2.16116047 C2.48975194,3.86705719 2.88957149,5.50631733 3.6359013,6.79906719 C3.56926471,6.89235842 3.52928276,7.03895892 3.54261008,7.18555942 L3.54261008,7.18555942 Z" id="Shape"></path>
            </g>
        </g>
    </g>
</svg>